<svg width="6" height="6" viewBox="0 0 6 6" fill="none" xmlns="http://www.w3.org/2000/svg">
<path d="M3.54969 3.00005L5.88597 0.663699C6.03801 0.51173 6.03801 0.266016 5.88597 0.114046C5.734 -0.0379237 5.48829 -0.0379237 5.33632 0.114046L2.99996 2.45039L0.663685 0.114046C0.511644 -0.0379237 0.266001 -0.0379237 0.114031 0.114046C-0.0380103 0.266016 -0.0380103 0.51173 0.114031 0.663699L2.45031 3.00005L0.114031 5.33639C-0.0380103 5.48836 -0.0380103 5.73408 0.114031 5.88605C0.189767 5.96185 0.289348 5.99994 0.388858 5.99994C0.488368 5.99994 0.587878 5.96185 0.663685 5.88605L2.99996 3.5497L5.33632 5.88605C5.41212 5.96185 5.51163 5.99994 5.61114 5.99994C5.71065 5.99994 5.81016 5.96185 5.88597 5.88605C6.03801 5.73408 6.03801 5.48836 5.88597 5.33639L3.54969 3.00005Z" fill="#6B6B6B"/>
</svg>
